HIERARCHY
ROOT Hips
{
	OFFSET 0.000000 0.000000 0.000000
	CHANNELS 6 Xposition Yposition Zposition Xrotation Yrotation Zrotation
	JOINT LeftUpLeg_virtual
	{
		OFFSET 0.000000 0.000000 0.000000
		CHANNELS 3 Xrotation Yrotation Zrotation
		JOINT LeftUpLeg
		{
			OFFSET 11.394100 -6.187798 -0.413800
			CHANNELS 3 Xrotation Yrotation Zrotation
			JOINT LeftLeg
			{
				OFFSET 0.430247 -32.302673 3.732800
				CHANNELS 3 Xrotation Yrotation Zrotation
				JOINT LeftFoot
				{
					OFFSET -0.430247 -48.264931 -6.423300
					CHANNELS 3 Xrotation Yrotation Zrotation
					JOINT LeftToeBase
					{
						OFFSET 4.230900 -16.068199 23.438400
						CHANNELS 3 Xrotation Yrotation Zrotation
						JOINT LeftToe_End
						{
							OFFSET 4.510700 0.695400 19.974600
							CHANNELS 3 Xrotation Yrotation Zrotation
							End Site
							{
								OFFSET 0 0 0
							}
						}
					}
				}
			}
		}
	}
	JOINT RightUpLeg_virtual
	{
		OFFSET 0.000000 0.000000 0.000000
		CHANNELS 3 Xrotation Yrotation Zrotation
		JOINT RightUpLeg
		{
			OFFSET -11.333700 -6.187798 -0.413800
			CHANNELS 3 Xrotation Yrotation Zrotation
			JOINT RightLeg
			{
				OFFSET -0.430392 -32.302628 3.733000
				CHANNELS 3 Xrotation Yrotation Zrotation
				JOINT RightFoot
				{
					OFFSET 0.430392 -48.264973 -6.423500
					CHANNELS 3 Xrotation Yrotation Zrotation
					JOINT RightToeBase
					{
						OFFSET -4.230900 -16.068199 23.438400
						CHANNELS 3 Xrotation Yrotation Zrotation
						JOINT RightToe_End
						{
							OFFSET -4.510700 0.695400 19.974600
							CHANNELS 3 Xrotation Yrotation Zrotation
							End Site
							{
								OFFSET 0 0 0
							}
						}
					}
				}
			}
		}
	}
	JOINT Spine_virtual
	{
		OFFSET 0.000000 0.000000 0.000000
		CHANNELS 3 Xrotation Yrotation Zrotation
		JOINT Spine
		{
			OFFSET -0.002400 12.777504 0.315300
			CHANNELS 3 Xrotation Yrotation Zrotation
			JOINT Spine1
			{
				OFFSET -0.002067 5.816869 0.032633
				CHANNELS 3 Xrotation Yrotation Zrotation
				JOINT Spine1_split
				{
					OFFSET -0.002067 5.816869 0.032633
					CHANNELS 3 Xrotation Yrotation Zrotation
					JOINT Spine2
					{
						OFFSET -0.002067 5.816869 0.032633
						CHANNELS 3 Xrotation Yrotation Zrotation
						JOINT Neck_virtual
						{
							OFFSET 0.000000 0.000000 0.000000
							CHANNELS 3 Xrotation Yrotation Zrotation
							JOINT Neck
							{
								OFFSET -0.003700 21.199493 -0.826900
								CHANNELS 3 Xrotation Yrotation Zrotation
								JOINT Head
								{
									OFFSET 0.000000 20.442200 4.834800
									CHANNELS 3 Xrotation Yrotation Zrotation
									JOINT HeadTop_End
									{
										OFFSET 0.000000 34.668396 4.968400
										CHANNELS 3 Xrotation Yrotation Zrotation
										End Site
										{
											OFFSET 0 0 0
										}
									}
								}
							}
						}
						JOINT LeftShoulder_virtual
						{
							OFFSET 0.000000 0.000000 0.000000
							CHANNELS 3 Xrotation Yrotation Zrotation
							JOINT LeftShoulder
							{
								OFFSET 3.288150 8.794197 -1.372250
								CHANNELS 3 Xrotation Yrotation Zrotation
								JOINT LeftShoulder_split
								{
									OFFSET 3.288150 8.794197 -1.372250
									CHANNELS 3 Xrotation Yrotation Zrotation
									JOINT LeftArm
									{
										OFFSET 11.953299 -2.279007 -0.146200
										CHANNELS 3 Xrotation Yrotation Zrotation
										JOINT LeftForeArm
										{
											OFFSET 18.448900 0.000000 0.000000
											CHANNELS 3 Xrotation Yrotation Zrotation
											JOINT LeftHand
											{
												OFFSET 29.527798 0.000000 0.000000
												CHANNELS 3 Xrotation Yrotation Zrotation
												End Site
												{
													OFFSET 0 0 0
												}
											}
										}
									}
								}
							}
						}
						JOINT RightShoulder_virtual
						{
							OFFSET 0.000000 0.000000 0.000000
							CHANNELS 3 Xrotation Yrotation Zrotation
							JOINT RightShoulder
							{
								OFFSET -3.249400 8.794197 -1.372250
								CHANNELS 3 Xrotation Yrotation Zrotation
								JOINT RightShoulder_split
								{
									OFFSET -3.249400 8.794197 -1.372250
									CHANNELS 3 Xrotation Yrotation Zrotation
									JOINT RightArm
									{
										OFFSET -11.953299 -2.279007 -0.146200
										CHANNELS 3 Xrotation Yrotation Zrotation
										JOINT RightForeArm
										{
											OFFSET -18.448900 0.000000 0.000000
											CHANNELS 3 Xrotation Yrotation Zrotation
											JOINT RightHand
											{
												OFFSET -29.527802 0.000000 0.000000
												CHANNELS 3 Xrotation Yrotation Zrotation
												End Site
												{
													OFFSET 0 0 0
												}
											}
										}
									}
								}
							}
						}
					}
				}
			}
		}
	}
}
MOTION
Frames: 10
Frame Time: 0.03333333
-0.128109 103.351692 1.222012 0.000000 0.000000 0.000000 -0.689237 -1.736670 0.952087 -9.782053 11.942592 8.726779 9.470936 -8.577634 0.515911 0.119352 -3.248102 -4.246017 0.141967 0.366886 -1.229842 0.000000 0.000000 0.000000 0.015526 0.027908 0.479220 -11.927219 -4.713651 -9.681534 12.393821 5.631843 -0.448585 5.277768 -2.496053 2.828551 0.574081 -1.084439 -1.627715 0.000000 0.000000 0.000000 -1.865792 -1.905137 0.640672 2.534346 0.760821 0.813645 0.899566 0.676707 0.252440 1.579615 2.683614 -0.217922 0.000000 0.000000 0.000000 1.140302 0.569844 -0.147419 -0.257490 -0.409535 -2.589416 -4.457891 -11.438821 5.308388 0.000000 0.000000 0.000000 0.732615 0.422520 0.276918 0.742660 -1.310238 -10.829307 -0.050567 0.186960 -2.895083 8.734320 -18.420829 -59.139692 2.199281 -26.258567 1.189419 0.000000 0.000000 0.000000 0.428414 0.448905 0.037365 0.623607 3.746248 14.375608 -0.645365 1.327359 0.061570 7.077385 4.589390 62.423366 0.085161 31.076712 -0.270007 0.000000 0.000000 0.000000 
-0.140561 103.643005 1.231411 0.000000 0.000000 0.000000 -0.315347 -1.443138 0.955879 -10.085731 11.072428 8.378780 9.733979 -8.234716 0.869411 0.096289 -2.827374 -4.071400 -0.108240 0.416204 -1.468717 0.000000 0.000000 0.000000 0.246694 -0.314720 0.484348 -11.930993 -5.197127 -9.761116 11.306652 5.533916 -0.585746 5.918280 -2.111730 3.245607 -0.131365 -1.257970 -1.454085 0.000000 0.000000 0.000000 -1.545606 -1.877993 0.483733 2.121546 0.739772 0.863699 0.915254 0.696952 0.359276 1.440641 2.972408 -0.019416 0.000000 0.000000 0.000000 1.052983 0.616463 -0.072880 -0.079035 -0.391043 -2.598915 -4.609494 -11.335566 5.061259 0.000000 0.000000 0.000000 0.750036 0.483256 0.342338 0.725038 -1.034570 -10.851334 0.974666 -0.281457 -2.458864 8.456269 -18.575102 -58.737742 2.629158 -24.383791 1.148800 0.000000 0.000000 0.000000 0.431351 0.468476 0.017736 0.613439 3.890812 14.607358 -0.119430 1.671890 0.442843 7.093103 3.531847 62.517288 0.273285 29.962220 -0.147958 0.000000 0.000000 0.000000 
-0.215771 103.971672 1.029980 0.000000 0.000000 0.000000 0.322345 -1.599031 0.945550 -10.767015 10.188205 8.130470 10.271475 -7.762778 1.213387 0.085324 -2.158778 -4.199044 -0.204752 0.479028 -1.555223 0.000000 0.000000 0.000000 0.712461 -0.812945 0.478803 -12.390266 -5.629097 -9.799080 10.197847 5.326155 -0.721014 5.939876 -1.848314 3.373808 -0.382142 -1.262905 -1.240122 0.000000 0.000000 0.000000 -0.848300 -2.025560 0.302280 1.680905 0.702003 0.884428 0.967236 0.690358 0.504030 1.368169 2.370187 0.121789 0.000000 0.000000 0.000000 0.994219 0.646233 0.034003 0.227549 -0.306690 -2.615164 -4.998168 -11.000427 4.719672 0.000000 0.000000 0.000000 0.844804 0.516864 0.407080 0.718010 -0.698802 -10.987268 1.451288 -0.651168 -1.829385 7.678090 -19.330361 -58.019260 2.772470 -23.121048 1.126215 0.000000 0.000000 0.000000 0.497881 0.500105 0.073015 0.605408 4.141103 14.864020 -0.354227 2.137884 0.332848 7.463602 3.730191 62.384994 0.366079 29.369055 0.012102 0.000000 0.000000 0.000000 
-0.317936 104.054657 0.605019 0.000000 0.000000 0.000000 1.184763 -1.978429 0.905300 -12.162553 9.410876 8.109899 11.408027 -7.192132 1.479219 -0.140092 -1.358760 -4.568695 -0.065217 0.545814 -1.465234 0.000000 0.000000 0.000000 1.465006 -1.342928 0.439084 -13.688016 -6.004579 -9.824679 9.700097 5.043671 -0.833411 5.401449 -1.688246 3.327678 -0.325013 -1.139890 -1.081736 0.000000 0.000000 0.000000 0.107306 -2.285460 0.151966 1.321109 0.674464 0.916354 1.064268 0.702789 0.634487 1.300087 1.515516 0.119847 0.000000 0.000000 0.000000 0.970001 0.686490 0.135461 0.536890 -0.207331 -2.558936 -5.725581 -10.421705 4.258051 0.000000 0.000000 0.000000 0.960065 0.561188 0.422815 0.713027 -0.431918 -11.098906 1.423760 -0.717221 -1.272993 6.094315 -19.994030 -57.153817 2.681331 -23.841414 1.156599 0.000000 0.000000 0.000000 0.611088 0.570853 0.152424 0.606000 4.433259 15.004910 -0.957412 2.628126 -0.158395 7.512885 4.872974 61.714912 0.360075 30.441296 0.190610 0.000000 0.000000 0.000000 
-0.433142 103.599525 -0.047890 0.000000 0.000000 0.000000 2.303778 -2.390738 0.825464 -14.713474 8.766504 8.351808 13.586263 -6.573177 1.671108 -0.778619 -0.567023 -5.133869 0.233697 0.618429 -1.223352 0.000000 0.000000 0.000000 2.614866 -1.733471 0.356133 -16.186934 -6.345037 -9.939050 10.689725 4.847931 -0.912585 4.319417 -1.494341 3.391974 -0.527280 -0.918674 -1.064002 0.000000 0.000000 0.000000 1.357991 -2.496689 0.037912 1.097044 0.672143 1.001442 1.178257 0.763602 0.694140 1.093652 0.849349 0.092873 0.000000 0.000000 0.000000 0.991735 0.772513 0.180756 0.673326 -0.120876 -2.398184 -6.912492 -9.631168 3.703660 0.000000 0.000000 0.000000 1.037971 0.646411 0.368119 0.709143 -0.368860 -11.000236 1.322590 -0.540649 -0.719498 3.323576 -19.963328 -56.408077 2.500394 -27.141700 1.213039 0.000000 0.000000 0.000000 0.768959 0.696678 0.191244 0.608424 4.693402 14.976424 -1.237886 2.872828 -0.821998 6.484911 6.635367 60.224585 0.269044 33.984101 0.418193 0.000000 0.000000 0.000000 
-0.561965 102.286453 -0.978264 0.000000 0.000000 0.000000 3.718528 -2.658251 0.710311 -18.740808 8.110245 8.815574 17.237258 -6.011485 1.777880 -1.939085 0.088077 -5.811583 0.398307 0.687539 -0.826234 0.000000 0.000000 0.000000 4.184550 -1.870217 0.244188 -20.192587 -6.575148 -10.210959 13.783339 4.803292 -1.014650 2.579352 -1.169437 3.548689 -1.047485 -0.656776 -1.191158 0.000000 0.000000 0.000000 2.909122 -2.554159 -0.003547 1.050968 0.701331 1.137451 1.293431 0.895152 0.646274 0.843320 0.201489 0.103266 0.000000 0.000000 0.000000 1.066109 0.928384 0.151703 0.517393 -0.034455 -2.142396 -8.612495 -8.638836 3.067801 0.000000 0.000000 0.000000 1.057008 0.790234 0.246102 0.692258 -0.548162 -10.544794 1.282933 -0.266660 -0.275581 -1.277843 -19.205162 -56.051063 2.347558 -33.174878 1.233339 0.000000 0.000000 0.000000 0.940162 0.875486 0.149086 0.618661 4.873147 14.675715 -1.021101 3.230100 -1.437216 3.603442 8.527805 57.774118 0.132715 39.908618 0.681537 0.000000 0.000000 0.000000 
-0.732145 100.098534 -2.102440 0.000000 0.000000 0.000000 5.526590 -2.742018 0.634810 -24.317352 7.264074 9.396754 22.453601 -5.477290 1.831358 -3.580938 0.620581 -6.479563 0.384728 0.743658 -0.362492 0.000000 0.000000 0.000000 6.135305 -1.933640 0.159038 -25.929355 -6.686967 -10.699645 19.291989 4.856136 -1.130399 0.106734 -0.741349 3.653592 -1.418678 -0.415637 -1.366998 0.000000 0.000000 0.000000 4.824995 -2.495321 -0.001930 1.157016 0.760152 1.294679 1.400852 1.078252 0.513626 0.563087 -0.138038 0.160325 0.000000 0.000000 0.000000 1.182881 1.124583 0.051212 0.031992 0.022381 -1.831593 -10.758782 -7.479736 2.396592 0.000000 0.000000 0.000000 1.045803 0.990101 0.087632 0.651915 -0.941179 -9.750443 1.196781 -0.081562 -0.183948 -7.692981 -18.041120 -56.029971 2.273986 -41.423298 1.214762 0.000000 0.000000 0.000000 1.087052 1.076917 0.044934 0.618616 5.011994 14.155207 -0.460441 3.579400 -1.650659 -1.675457 10.482331 54.468221 -0.011828 47.661746 0.976273 0.000000 0.000000 0.000000 
-0.890770 97.127556 -3.389778 0.000000 0.000000 0.000000 7.640435 -2.678418 0.604475 -31.226747 6.137291 9.928020 28.952608 -4.892798 1.860341 -5.513245 1.124918 -6.956835 0.323416 0.757125 0.071425 0.000000 0.000000 0.000000 8.318433 -1.940657 0.131450 -33.326610 -6.657951 -11.443940 26.934644 4.971305 -1.267312 -2.906798 -0.226244 3.582286 -1.367194 -0.219842 -1.488208 0.000000 0.000000 0.000000 7.128370 -2.257457 -0.000022 1.319851 0.831770 1.421363 1.516751 1.263486 0.344342 0.535152 -0.195833 0.131358 0.000000 0.000000 0.000000 1.330553 1.303525 -0.080796 -0.730810 0.079162 -1.511856 -13.208467 -6.356283 1.755092 0.000000 0.000000 0.000000 1.048899 1.210953 -0.063309 0.598605 -1.530413 -8.729379 0.925759 -0.150350 -0.387170 -15.672550 -16.813445 -56.252765 2.244118 -50.235532 1.139692 0.000000 0.000000 0.000000 1.213641 1.263265 -0.099277 0.601239 5.200849 13.542428 0.199783 3.781050 -1.463789 -9.389194 12.702128 50.700757 -0.135007 55.924257 1.182143 0.000000 0.000000 0.000000 
-0.980143 93.682083 -4.713722 0.000000 0.000000 0.000000 9.938036 -2.454323 0.604640 -38.888601 4.773702 10.352280 36.077063 -4.253519 1.844195 -7.526840 1.586602 -7.132956 0.321991 0.706590 0.454874 0.000000 0.000000 0.000000 10.532474 -2.058293 0.189395 -41.872454 -6.330378 -12.373286 35.774864 5.149735 -1.425286 -5.942028 0.344538 3.475829 -1.080579 -0.102475 -1.535556 0.000000 0.000000 0.000000 9.708334 -1.937911 -0.010927 1.494823 0.912832 1.483655 1.683532 1.424481 0.181430 0.831820 -0.316619 0.149892 0.000000 0.000000 0.000000 1.527822 1.446341 -0.190210 -1.640663 0.155524 -1.234716 -15.692360 -5.333333 1.176264 0.000000 0.000000 0.000000 1.124699 1.412282 -0.171013 0.552567 -2.340285 -7.612814 0.763639 -0.256362 -0.586558 -24.704926 -15.713110 -56.535388 2.132600 -57.957741 0.990022 0.000000 0.000000 0.000000 1.346275 1.409062 -0.260259 0.587218 5.506395 12.978120 0.630937 3.984149 -1.111157 -19.059272 15.441454 47.226578 -0.186943 63.446857 1.233329 0.000000 0.000000 0.000000 
-1.015731 90.130913 -5.920696 0.000000 0.000000 0.000000 12.228708 -2.108290 0.621679 -46.589533 3.332852 10.654688 43.015507 -3.583431 1.759893 -9.330435 1.973980 -7.029353 0.572356 0.605287 0.714033 0.000000 0.000000 0.000000 12.692947 -2.304664 0.339641 -50.620233 -5.689984 -13.372633 44.553860 5.408915 -1.619478 -8.473574 0.947638 3.549156 -0.928224 -0.021934 -1.482702 0.000000 0.000000 0.000000 12.354866 -1.691909 -0.039725 1.597861 1.008131 1.491021 1.908149 1.550344 0.035822 1.112871 -0.657773 0.190227 0.000000 0.000000 0.000000 1.770883 1.547476 -0.263140 -2.586174 0.211528 -1.054010 -17.798105 -4.348556 0.711319 0.000000 0.000000 0.000000 1.293384 1.573923 -0.233732 0.535528 -3.432712 -6.566393 0.485536 -0.250233 -0.788749 -33.762629 -14.650133 -56.656026 1.925380 -63.538436 0.810906 0.000000 0.000000 0.000000 1.522439 1.509475 -0.398088 0.596671 6.060417 12.610057 0.833308 4.199594 -0.916211 -29.556404 18.438649 44.840977 -0.183466 68.997745 1.138713 0.000000 0.000000 0.000000 
